<?xml version="1.0" standalone="no"?><!DOCTYPE svg PUBLIC "-//W3C//DTD SVG 1.1//EN" "http://www.w3.org/Graphics/SVG/1.1/DTD/svg11.dtd"><svg t="1585671884786" class="icon" viewBox="0 0 1024 1024" version="1.1" xmlns="http://www.w3.org/2000/svg" p-id="1274" xmlns:xlink="http://www.w3.org/1999/xlink" width="200" height="200"><defs><style type="text/css"></style></defs><path d="M956.8 0H67.2C32 0 6.4 28.8 6.4 60.8v902.4c0 35.2 28.8 60.8 60.8 60.8h889.6c35.2 0 60.8-28.8 60.8-60.8V60.8c0-32-25.6-60.8-60.8-60.8zM512 480c-153.6 0-275.2-124.8-275.2-275.2 0-16 12.8-28.8 28.8-28.8s28.8 12.8 28.8 28.8c0 121.6 99.2 217.6 217.6 217.6s217.6-99.2 217.6-217.6c0-16 12.8-28.8 28.8-28.8s28.8 12.8 28.8 28.8C787.2 355.2 665.6 480 512 480z" fill="#888888" p-id="1275"></path></svg>